<svg width="463" height="104" viewBox="0 0 463 104" fill="none" xmlns="http://www.w3.org/2000/svg">
<path d="M151 62.202V21.4405L118.643 31.909L135.69 48.4848L124.5 69L135.72 88.3448L151 62.202Z" fill="url(#paint0_radial_2_2)"/>
<path d="M60.3722 19.833C40.8231 19.833 22.4702 10.6548 22.4702 10.6548L0 34.0238L28.7883 82.3594L135.7 48.4748L151 21.4405C151 21.4405 131.366 12.4448 110.667 12.4448C89.9678 12.4448 79.9213 19.833 60.3722 19.833Z" fill="url(#paint1_linear_2_2)"/>
<path d="M0 73.9643V34.0238C0 34.0238 19.5998 47.5059 43.1429 47.5059C66.6859 47.5059 75.0506 41.3733 92.5774 41.3733C110.104 41.3733 135.7 48.4846 135.7 48.4846L135.72 88.3452C135.72 88.3452 113.824 81.1548 92.5774 81.1548C73.6281 81.1548 66.6859 87.4464 43.1429 87.4464C19.5998 87.4464 0 73.9643 0 73.9643Z" fill="url(#paint2_radial_2_2)"/>
<path d="M188.296 43.88H192.472V31.64C192.472 27.944 193.504 25.04 195.568 22.928C197.68 20.768 200.8 19.688 204.928 19.688C207.376 19.688 209.32 20.12 210.76 20.984C212.248 21.8 213.376 22.568 214.144 23.288L209.752 31.28C208.888 30.08 207.76 29.48 206.368 29.48C204.064 29.48 202.912 31.112 202.912 34.376V43.88H210.904V52.88H202.912V77H192.472V52.88H188.296V43.88ZM215.35 31.496C215.35 29.768 215.95 28.352 217.15 27.248C218.398 26.144 219.91 25.592 221.686 25.592C223.462 25.592 224.95 26.144 226.15 27.248C227.398 28.352 228.022 29.768 228.022 31.496C228.022 33.224 227.398 34.64 226.15 35.744C224.95 36.8 223.462 37.328 221.686 37.328C219.91 37.328 218.398 36.8 217.15 35.744C215.95 34.64 215.35 33.224 215.35 31.496ZM216.358 43.88H226.942V77H216.358V43.88ZM257.424 56.84C257.424 54.872 257.064 53.384 256.344 52.376C255.624 51.32 254.376 50.792 252.6 50.792C250.872 50.792 249.48 51.32 248.424 52.376C247.368 53.384 246.84 54.872 246.84 56.84V77H235.896V43.88H246.84V48.848C247.8 47.024 249.096 45.608 250.728 44.6C252.408 43.592 254.472 43.088 256.92 43.088C261.048 43.088 264.048 44.192 265.92 46.4C267.84 48.608 268.8 51.704 268.8 55.688V77H257.424V56.84ZM280.911 54.032L277.239 46.76C279.159 45.848 281.415 44.984 284.007 44.168C286.647 43.352 289.527 42.944 292.647 42.944C295.575 42.944 298.191 43.376 300.495 44.24C302.799 45.056 304.623 46.256 305.967 47.84C307.311 49.424 307.983 51.368 307.983 53.672V77H297.543V72.464C296.535 74.192 295.023 75.512 293.007 76.424C291.039 77.288 288.903 77.72 286.599 77.72C284.487 77.72 282.519 77.336 280.695 76.568C278.919 75.752 277.479 74.552 276.375 72.968C275.319 71.384 274.791 69.464 274.791 67.208C274.791 64.04 275.895 61.544 278.103 59.72C280.359 57.848 283.575 56.912 287.751 56.912C289.767 56.912 291.615 57.128 293.295 57.56C294.975 57.944 296.391 58.424 297.543 59V56.12C297.543 52.856 295.455 51.224 291.279 51.224C289.839 51.224 288.399 51.392 286.959 51.728C285.519 52.064 284.247 52.472 283.143 52.952C282.087 53.384 281.343 53.744 280.911 54.032ZM285.807 66.632C285.807 67.928 286.239 68.936 287.103 69.656C288.015 70.328 289.143 70.664 290.487 70.664C292.263 70.664 293.847 70.136 295.239 69.08C296.631 67.976 297.399 66.344 297.543 64.184C295.575 63.32 293.439 62.888 291.135 62.888C289.215 62.888 287.847 63.224 287.031 63.896C286.215 64.52 285.807 65.432 285.807 66.632ZM337.651 56.84C337.651 54.872 337.291 53.384 336.571 52.376C335.851 51.32 334.603 50.792 332.827 50.792C331.099 50.792 329.707 51.32 328.651 52.376C327.595 53.384 327.067 54.872 327.067 56.84V77H316.123V43.88H327.067V48.848C328.027 47.024 329.323 45.608 330.955 44.6C332.635 43.592 334.699 43.088 337.147 43.088C341.275 43.088 344.275 44.192 346.147 46.4C348.067 48.608 349.027 51.704 349.027 55.688V77H337.651V56.84ZM366.681 60.44C366.681 63.08 367.545 65.168 369.273 66.704C371.001 68.24 373.089 69.008 375.537 69.008C377.505 69.008 379.377 68.6 381.153 67.784C382.929 66.92 384.297 65.696 385.257 64.112V74.696C384.105 75.608 382.665 76.352 380.937 76.928C379.209 77.456 377.097 77.72 374.601 77.72C370.905 77.72 367.617 77 364.737 75.56C361.857 74.12 359.577 72.104 357.897 69.512C356.265 66.92 355.449 63.896 355.449 60.44C355.449 56.936 356.265 53.912 357.897 51.368C359.577 48.776 361.857 46.76 364.737 45.32C367.617 43.88 370.905 43.16 374.601 43.16C377.097 43.16 379.209 43.448 380.937 44.024C382.665 44.552 384.105 45.224 385.257 46.04V56.696C384.297 55.112 382.881 53.912 381.009 53.096C379.137 52.28 377.313 51.872 375.537 51.872C373.905 51.872 372.417 52.256 371.073 53.024C369.729 53.744 368.649 54.752 367.833 56.048C367.065 57.344 366.681 58.808 366.681 60.44ZM409.965 77.72C406.077 77.72 402.717 77.024 399.885 75.632C397.101 74.192 394.941 72.176 393.405 69.584C391.869 66.992 391.101 63.944 391.101 60.44C391.101 55.064 392.757 50.84 396.069 47.768C399.381 44.696 403.941 43.16 409.749 43.16C415.461 43.16 419.853 44.624 422.925 47.552C426.045 50.48 427.605 54.608 427.605 59.936C427.605 60.464 427.605 60.968 427.605 61.448C427.605 61.928 427.581 62.36 427.533 62.744H402.261C402.549 65 403.341 66.752 404.637 68C405.933 69.248 407.637 69.872 409.749 69.872C413.589 69.872 416.325 68.432 417.957 65.552L427.749 67.928C424.245 74.456 418.317 77.72 409.965 77.72ZM409.533 50.432C405.597 50.432 403.221 52.52 402.405 56.696H415.941C415.749 54.776 415.077 53.264 413.925 52.16C412.821 51.008 411.357 50.432 409.533 50.432ZM436.118 64.976C438.662 67.088 440.822 68.528 442.598 69.296C444.422 70.016 445.91 70.376 447.062 70.376C449.222 70.376 450.302 69.512 450.302 67.784C450.302 66.728 449.798 65.888 448.79 65.264C447.782 64.592 445.934 63.824 443.246 62.96C441.71 62.432 440.222 61.76 438.782 60.944C437.342 60.128 436.166 59.048 435.254 57.704C434.342 56.36 433.886 54.632 433.886 52.52C433.886 49.496 435.062 47.192 437.414 45.608C439.766 43.976 442.718 43.16 446.27 43.16C449.102 43.16 451.694 43.64 454.046 44.6C456.398 45.512 458.534 46.664 460.454 48.056L456.566 55.184C455.222 53.888 453.638 52.808 451.814 51.944C450.038 51.08 448.406 50.648 446.918 50.648C445.958 50.648 445.214 50.84 444.686 51.224C444.206 51.608 443.966 52.112 443.966 52.736C443.966 53.84 444.614 54.656 445.91 55.184C447.254 55.712 449.15 56.456 451.598 57.416C453.326 58.04 454.91 58.76 456.35 59.576C457.79 60.392 458.942 61.424 459.806 62.672C460.718 63.92 461.174 65.576 461.174 67.64C461.174 71.144 460.094 73.808 457.934 75.632C455.774 77.456 452.702 78.368 448.718 78.368C445.118 78.368 441.926 77.792 439.142 76.64C436.358 75.44 433.838 73.952 431.582 72.176L436.118 64.976Z" fill="white"/>
<defs>
<radialGradient id="paint0_radial_2_2" cx="0" cy="0" r="1" gradientUnits="userSpaceOnUse" gradientTransform="translate(137.133 -26.4569) rotate(89.6147) scale(118.352 45.1094)">
<stop offset="0.145833" stop-color="#54F346"/>
<stop offset="0.590466" stop-color="#60AE59"/>
<stop offset="0.884954" stop-color="#2F662A"/>
<stop offset="1" stop-color="#214D1D"/>
</radialGradient>
<linearGradient id="paint1_linear_2_2" x1="19.5" y1="-11" x2="121.883" y2="68.8999" gradientUnits="userSpaceOnUse">
<stop stop-color="#73C166"/>
<stop offset="0.463542" stop-color="#A7E988"/>
<stop offset="0.703125" stop-color="#A7E988"/>
<stop offset="1" stop-color="#73C166"/>
</linearGradient>
<radialGradient id="paint2_radial_2_2" cx="0" cy="0" r="1" gradientUnits="userSpaceOnUse" gradientTransform="translate(77.5544 -4.86541) rotate(88.0102) scale(96.1493 189.099)">
<stop offset="0.145833" stop-color="#54F346"/>
<stop offset="0.590466" stop-color="#60AE59"/>
<stop offset="0.884954" stop-color="#2F662A"/>
<stop offset="1" stop-color="#214D1D"/>
</radialGradient>
</defs>
</svg>
