<svg id="Layer_1" enable-background="new 0 0 512 512" height="512" viewBox="0 0 512 512" width="512" xmlns="http://www.w3.org/2000/svg"><g id="_x39_4.Trash"><path d="m459.125 37.25h-117.188l-9.18-18.262c-3.966-7.963-12.1-12.995-20.996-12.988h-111.62c-8.88-.034-16.998 5.011-20.898 12.988l-9.18 18.262h-117.188c-8.629 0-15.625 6.996-15.625 15.625v31.25c0 8.629 6.996 15.625 15.625 15.625h406.25c8.629 0 15.625-6.996 15.625-15.625v-31.25c0-8.629-6.996-15.625-15.625-15.625z"/><path d="m89.203 462.055c1.547 24.7 22.029 43.942 46.777 43.945h240.04c24.748-.003 45.231-19.245 46.777-43.945l20.703-331.055h-375z"/></g></svg>